<?xml version="1.0" standalone="no"?><!DOCTYPE svg PUBLIC "-//W3C//DTD SVG 1.1//EN" "http://www.w3.org/Graphics/SVG/1.1/DTD/svg11.dtd"><svg t="1635523994706" class="icon" viewBox="0 0 1024 1024" version="1.1" xmlns="http://www.w3.org/2000/svg" p-id="2141" xmlns:xlink="http://www.w3.org/1999/xlink" width="200" height="200"><defs><style type="text/css"></style></defs><path d="M483.84 640.853333c16.64 16.64 43.52 16.64 60.16 0l271.36-271.36a42.496 42.496 0 0 0 0-60.16L604.16 98.133333a41.6 41.6 0 0 0-59.733333-0.426666L272.64 369.493333a42.496 42.496 0 0 0 0 60.16l211.2 211.2z m90.453333-452.693333L725.333333 339.2l-211.2 211.2-151.04-151.04 211.2-211.2z m296.533334 469.333333l-90.453334-90.453333c-7.68-7.68-18.773333-12.373333-29.866666-12.373333h-11.52l-85.333334 85.333333h81.493334L810.666667 725.333333H213.333333l75.946667-85.333333h87.466667l-85.333334-85.333333h-17.92c-11.52 0-22.186667 4.693333-30.293333 12.373333l-90.453333 90.453333c-15.786667 16.213333-24.746667 37.973333-24.746667 60.586667V853.333333c0 46.933333 38.4 85.333333 85.333333 85.333334h597.333334a85.333333 85.333333 0 0 0 85.333333-85.333334v-135.253333c0-22.613333-8.96-44.373333-25.173333-60.586667z" p-id="2142"></path></svg>